<?xml version="1.0" encoding="utf-8"?>
<!-- Generator: Adobe Illustrator 22.1.0, SVG Export Plug-In . SVG Version: 6.00 Build 0)  -->
<svg version="1.1" id="Layer_1" xmlns="http://www.w3.org/2000/svg" xmlns:xlink="http://www.w3.org/1999/xlink" x="0px" y="0px"
	 viewBox="0 0 1000 1000" style="enable-background:new 0 0 1000 1000;" xml:space="preserve">
<g id="Shape_2_1_">
	<path d="M627.9,362.4c-0.7,1-1.2,1.7-1.5,2.5c-0.2,0.6,0.1,1.4,0.1,2.1c0.6-0.2,1.3-0.3,1.9-0.6c8.5-4.6,16.8-9.4,25.4-13.8
		c9.9-5.1,20.1-9.7,29.9-15.1c3.1-1.7,5.3-5.2,7.4-8.2c8.6-11.8,16.9-23.9,25.7-35.6c8.4-11.2,17-22.3,25.9-33.2
		c6.7-8.2,14-15.9,21-23.8c2.6-3,6.2-4.2,9.2-2.1c5.2,3.6,11.5,6.2,12.9,13.9c0.9,5-2.4,6.7-4.8,9.2c-5.2,5.5-10.9,10.6-16,16.2
		c-3.8,4.1-7,8.6-10.4,13.1c-7.1,9.2-14.3,18.5-21.3,27.8c-0.5,0.6-0.5,1.6-0.7,2.4c0.9,0,1.9,0.2,2.8,0c13-3.6,26-7.4,39.7-6.8
		c7.6,0.3,15.2,1.9,20.9,6.7c3,2.6,3.7,8.1,5.1,12.3c0.2,0.5-1.7,2.1-2.9,2.6c-0.5,0.2-2-0.9-2.3-1.6c-2.5-5.7-7.1-7-12.8-7.3
		c-13.1-0.7-25.1,3.4-37.2,7.5c-9.5,3.2-19.2,6.1-28.2,10.3c-3.7,1.7-6.5,6.1-8.7,9.8c-7.4,12.3-14.2,24.9-21.5,37.3
		c-9.4,16-19.3,31.6-28.3,47.8c-7.1,12.8-13.3,26.2-19.9,39.3c-3.9,7.8-8.2,15.5-11.8,23.5c-2.8,6.3-4.8,13-6.9,19.5
		c-2.7,8-5.7,16-7.7,24.3c-2.6,10.4-4.2,21-2,31.9c1.2,5.8,1.6,11.8,2.9,17.6c0.5,2.1,2.4,5.3,3.8,5.4c3,0.2,6.6-0.7,9.2-2.3
		c3.3-1.9,5.9-5.1,8.8-7.6c0.7-0.6,1.7-0.9,2.5-1.4c0.4,0.9,1.3,1.9,1.1,2.7c-1.4,5.7-1.8,12-4.9,16.7c-2.8,4.3-9,5.1-14.4,4.3
		c-13.1-2-20.8-9.9-24.6-22.3c-1.5-5-4.6-9.5-5.8-14.5c-1.7-6.9-2.4-14-3.2-21.1c-2.1-19.9,4.1-38.4,11.4-56.2
		c7.6-18.5,16.6-36.5,25.8-54.3c7.8-15,16.8-29.4,25.4-43.9c5.2-8.8,10.6-17.6,16-26.3c1.3-2.2,2.8-4.3,4-6.6
		c0.3-0.5-0.1-1.4-0.2-2.2c-0.5,0.1-1.1,0.2-1.6,0.4c-6.6,3.9-13.2,7.9-19.8,11.8c-8.5,4.9-17.1,9.6-25.6,14.4
		c-0.7,0.4-1.5,0.8-2.3,1.1c-4.4,1.8-8,3.9-8.7,9.6c-0.7,6-3.3,11.8-4.2,17.8c-0.7,4.8,0.7,5.5,5.3,3.7c1.2-0.5,2.2-1.5,3.4-1.8
		c1.4-0.3,2.9-0.1,4.3-0.2c0,1.3,0.1,2.7-0.1,4c-0.2,1.1-0.9,2.1-1.1,3.2c-1,6.4-9,12-15.1,10.2c-5.6-1.6-10-4.8-12.5-10.5
		c-1.8-4.1-5.8-7.3-5.3-12.4c-1.4,0-3-0.4-4.1,0.2c-4,2.5-8.1,5.1-11.8,8c-11.2,9.1-22.3,18.4-33.3,27.8c-2.1,1.8-3.5,4.4-5.6,6.3
		c-2.8,2.7-4.9,6.5-9.8,6.4c-1.1,0-2.1,2.6-3.3,3.9c-2.2,2.4-5.1,5.4-8.2,3.9c-3-1.4-6.2-4.5-7-7.5c-1.4-4.9,0.4-10.1,4.3-13.5
		c7.2-6.5,14.7-12.8,22.4-18.8c10-7.7,20.2-15.1,30.5-22.3c6.7-4.7,13.5-9.3,20.5-13.4c4.7-2.8,7.1-6.6,9.2-11.5
		c4.9-11.4,10.1-22.8,16.4-33.5c9.8-16.6,20.6-32.7,31-48.9c3.7-5.8,7.6-11.6,11.7-17.1c4-5.3,8.3-10.3,12.6-15.4
		c2.2-2.6,4.3-5.4,6.8-7.7c3.9-3.6,8.5-4.5,13.7-2c3.4,1.7,6.7,3,9.3,6.3c4.1,5.3,3.4,10.1-1.4,14.6c-8.4,7.8-16.8,15.8-23.8,24.8
		c-9.1,11.7-17,24.3-25,36.7C635.8,347.9,632.1,355.1,627.9,362.4 M647.4,415.2c3.1-5.1,6.1-10.3,9.2-15.4
		c6.4-10.8,12.9-21.5,19.3-32.3c2.8-4.6,5.5-9.4,8.4-13.9c2.9-4.5,6.3-8.7,9.3-13.1c0.3-0.4,0-1.7-0.4-2.1c-0.4-0.3-1.6-0.2-2.1,0.2
		c-1.2,1.1-2.5,2.3-3.3,3.6c-4,6.2-7.9,12.6-11.9,18.8c-7,11-14.1,21.9-20.9,33c-6,9.8-11.8,19.8-17.5,29.8
		c-4.7,8.3-9.1,16.7-13.6,25c-4.2,7.9-9,15.5-12.5,23.6c-5.9,14-11.1,28.3-16.2,42.7c-1.9,5.4-2.4,11.2-3.5,16.9
		c-0.1,0.8,0.6,1.7,0.9,2.5c0.3-0.7,0.7-1.4,0.9-2.1c1.8-5.8,3.7-11.6,5.4-17.4c6.2-21.1,16.3-40.6,26.3-60
		C631.9,441.7,639.6,428.8,647.4,415.2 M667.5,396c3.7-5.3,7.5-10.6,11-16.1c8.6-13.6,17.1-27.3,25.6-41.1c0.8-1.3,1-3,1.5-4.6
		c-1.5,0.8-3,1.6-4.4,2.4c-0.5,0.3-1,0.8-1.3,1.3c-5,7.8-10.1,15.6-15,23.5c-8.6,14.1-17,28.3-25.5,42.5c-6.5,11-13.2,22-19.4,33.1
		c-5.8,10.4-11.1,21-16.5,31.6c-4.7,9.3-9.4,18.7-13.7,28.2c-2.8,6.3-5.2,12.8-7.3,19.4c-1.9,5.7-3.3,11.5-4.6,17.3
		c-0.9,3.8-1.3,7.7-1.8,11.6c-0.1,0.4,0.4,1,0.7,1.3c0.1,0.1,0.9-0.3,1-0.5c0.7-2.6,1.2-5.3,1.9-7.9c0.7-2.7,1.6-5.4,2.4-8.1
		c1-3.2,2.1-6.4,3-9.7c0.8-3,1.2-6.2,2.2-9.2c1.5-4.1,3.4-8.1,5.2-12c3-6.7,5.9-13.4,9.2-20c3.9-7.8,8.3-15.4,12.4-23.2
		c3-5.8,5.7-11.7,8.7-17.4c0.9-1.7,2.4-2.9,3.3-4.6c2.4-4.6,4.2-9.6,6.9-14C657.6,412,662.6,404.5,667.5,396 M667.9,349.8
		c-3.2,2.3-6.2,4.8-9.6,6.7c-8.9,4.9-18,9.5-26.9,14.3c-6.5,3.5-12.8,7.1-15.2,14.8c-0.2,0.6-0.1,1.3-0.1,2c0.7,0,1.7,0.2,2.2-0.2
		c2.2-1.5,4-3.4,6.3-4.7c9.4-5.2,18.9-10.2,28.4-15.3c4.9-2.6,9.6-5.7,14.8-7.3c7.4-2.2,8.5-9.2,12.5-14c0.3-0.3-0.3-1.3-0.4-2
		c-0.5,0.2-1.1,0.4-1.6,0.7C675.1,346.5,672,348.2,667.9,349.8 M736.6,322.3c-6,0-15.2,6.4-16.9,11.6c-0.2,0.5-0.1,1.6,0.1,1.7
		c0.8,0.2,1.7,0.3,2.4,0.1c4.8-2,9.6-4.1,14.4-6c14.4-5.8,29.1-10.4,44.8-11c0.8,0,1.5-0.4,2.3-0.7c-0.7-0.7-1.3-1.9-2-2
		c-4.9-0.5-10.1-1.7-14.8-0.8C757,317,747.3,319.9,736.6,322.3 M598.4,380c3.3-6.7,6.4-13.5,10.1-20c5.9-10.5,12.2-20.8,18.3-31.3
		c0.8-1.3,1-2.9,1.3-4.5c0.1-0.5-0.2-1.1-0.2-1.7c-0.5,0.4-1.2,0.7-1.6,1.3c-2.2,3.1-4.5,6-6.3,9.3c-8.3,15.4-16.6,30.9-24.7,46.4
		c-0.8,1.6-0.6,3.7-0.9,5.6C595.6,383.6,596.7,382,598.4,380 M723.8,297.6c2.8-4.3,5.6-8.6,8.4-13c0.9-1.5,1.5-3.2,2.3-4.8
		c-1.5,1.1-3.4,2-4.5,3.5c-11.1,14.9-22,29.8-32.9,44.8c-0.6,0.8-0.6,2.1-0.9,3.1c1.1-0.2,2.2-0.3,3.1-0.7c0.9-0.4,1.9-0.9,2.5-1.7
		C708.9,318.6,716.1,308.3,723.8,297.6 M604.3,578.1c-0.3-5.5,1.2-11.3-2.7-16.1c-0.4-0.6-0.8-1.3-1.3-1.6c-0.2-0.2-1.4,0.4-1.3,0.6
		c0.1,0.8,0.2,2,0.7,2.4c2.3,1.6,1.4,3.5,1.2,5.7c-0.3,4.6,0.2,9.3,0.8,13.8c0.3,2,1.4,4,2.3,5.8c0.2,0.5,1.2,0.6,1.8,0.8
		c0.1-0.7,0.5-1.4,0.3-2.1C605.6,584.6,604.9,581.8,604.3,578.1 M580.5,404.2c-4,2.4-8.5,4.3-11.6,8c-0.5,0.6-0.7,1.4-1.1,2.2
		c0.7,0.1,1.6,0.6,2.1,0.3c4.6-2.4,9.4-4.6,13.7-7.5c1-0.7,0.6-3.5,0.9-5.4C583.4,402.5,582.2,403.1,580.5,404.2 M614.9,504.5
		c0,0.6,0,1.2,0.1,1.8c0.4-0.4,1.1-0.8,1.3-1.3c1-2.9,1.9-5.9,2.8-8.9c0.2-0.6,0.3-1.1,0.5-1.7c-0.6,0.3-1.7,0.5-1.8,1
		C616.8,498.2,616.1,501.1,614.9,504.5 M601.6,548.8c0.2,1.1,0.4,2.1,0.6,3.2c0.4-0.1,0.8-0.3,1.2-0.4
		C602.9,550.6,602.5,549.5,601.6,548.8z"/>
	<path d="M144.9,293.9c2.7-4.5,5.7-8.4,8.2-12.6c4.8-8,13.4-10.1,21.4-4.8c2.1,1.3,4.2,2.9,5.7,4.8c4.3,5.8,4.2,9.4,0.1,15.3
		c-9.4,13.6-19.3,26.9-27.9,41.1c-6.5,10.8-11.2,22.8-16.7,34.2c-1.3,2.8-2.1,6-3.8,8.5c-1.9,2.7-0.3,2.7,1.4,2.3
		c9.9-2.5,20-4.6,29.7-7.8c11.4-3.7,22.8-7.6,33.7-12.5c7.6-3.4,14.3-8.8,21.5-13.2c6.8-4.2,11.1-10.5,13.3-17.7
		c2.6-8.3,1.9-16.8-1.5-25.2c-5.3-13.1-14.7-21.8-26.7-28.4c-8.5-4.7-17.7-6.6-27-8.9c-6.9-1.7-13.7-2-20.3-1.4
		c-12.2,1.2-24.5,2.9-36.5,5.7c-7,1.6-13.5,5.7-20.1,8.7c-9.4,4.2-18.9,8.3-28,13c-2.7,1.4-4.5,4.6-6.6,7.1
		c-5.2,6.4-10.2,12.9-15.6,19.1c-2.3,2.6-5.6,1.3-7.3-1c-5-6.5-6.8-13.7-4.4-22c3.3-11.7,11.9-18.5,21.5-24.4
		c16.7-10.2,34.5-17.6,53.9-21.2c11.1-2.1,22.1-4.6,33.4-4.4c12.3,0.2,24.5,1.6,36.3,5.4c15,4.9,28.8,12.3,41.2,22
		c4.9,3.8,7.9,10,11.8,15.1c7,9.3,12.7,19.3,15.2,30.8c2.6,12.1,4.7,24.5-2.6,35.5c-4.2,6.4-10,12-15.8,17.2
		c-10,9.1-22.6,13.6-35.1,17.8c-9.1,3.1-18.7,5-27.8,8.1c-11.7,4-23.6,5.7-35.8,6.3c-7.2,0.3-9.7,2.9-9.7,12.4
		c0,13.8,1.8,27.5,4.2,41.2c2.1,12.3,6.9,23.4,12.3,34.3c1.8,3.7,4.4,7.2,7.1,10.3c4.9,5.5,5.7,5.4,13.1,1.8
		c0.5-0.2,1.1-0.4,1.6-0.7c2.2-1.1,4.2-3.8,6.9-1.4c1.5,1.4,0.5,7.9-1.3,9.5c-7,6.2-17.7,7.9-26.9,3c-6-3.2-11.2-7.8-16.3-12.4
		c-12.3-11.2-17.7-26.1-21.8-41.6c-0.3-1-0.4-2-1-2.8c-0.4-0.7-1.4-1.4-2-1.4c-0.6,0.1-1.3,1.1-1.5,1.9c-2.8,10.4-6.1,20.8-8,31.4
		c-1.3,7-2.4,14.5,1,21.5c0.4,0.8,0.1,2.8-0.3,3c-2,0.8-4.2,1.8-6.2,1.5c-6.4-1.1-15.6-11-16.7-17.5c-1.7-9.3-1.7-18.3-0.3-27.8
		c1.8-12.5,5.2-24.4,8.7-36.3c2.6-8.9,6.7-17.3,10.1-26c0.5-1.3,1-2.7,1.3-4c0.1-0.7-0.1-1.9-0.6-2.1c-0.8-0.3-1.8-0.2-2.7,0.1
		c-0.9,0.2-2,1.4-2.6,1.1c-9.4-3.9-20.1-6.2-25-16.4c-2.7-5.5-3.6-11.9-5.2-17.9c-0.2-0.6,0.5-1.5,0.8-2.2c0.7,0.5,1.5,0.9,2,1.5
		c3.6,3.8,6.6,8.4,10.8,11.3c4.4,3.1,9.6,5.7,15.6,4.7c1.9-0.3,4,0.7,6,0.8c2.8,0.2,5.9,0.8,8.3-0.2c1.9-0.8,3.1-3.7,4.2-5.9
		c3.6-7.1,6.9-14.2,10.4-21.3c5.1-10.1,10.2-20.2,15.6-30.2C131.6,317.9,138.3,306.2,144.9,293.9 M208.5,375.4
		c0.8-0.3,1.7-0.5,2.3-0.9c0.6-0.4,1-1.1,1.5-1.6c-1-0.3-2.1-0.6-3.1-0.9c-0.8,5.2-8.1-1-8.6,4.9c0,0.1-0.6,0.4-0.7,0.4
		c-3-3.1-3.4,1-5.1,1.6c-4.3,1.7-7.8,4.9-13,5.3c-4.5,0.4-8.5,4.2-13,5.8c-11.8,4.1-23.8,7.3-36.3,8.3c-1.9,0.2-3.9-0.3-5.9-0.4
		c1.8-0.8,3.5-1.9,5.4-2.2c11.3-2.3,22.9-3.7,33.6-8.3c0.5-0.2,0.8-0.9,1.2-1.3c-0.5-0.1-1.1-0.4-1.5-0.3c-12,2.4-23.9,4.8-35.9,7.1
		c-4,0.8-6.5,5.5-4.4,8.8c0.7,1.1,2.7,1.9,4,1.9c3-0.2,6-0.9,8.9-1.5c7-1.5,14-2.9,21-4.5c9.7-2.2,18.6-6.6,27.5-10.9
		C193.6,382.9,200.8,379.4,208.5,375.4 M85.8,442.2c1-2.2,2.1-4.3,2.9-6.6c2-6.1,5.9-11.6,4.9-18.5c-0.1-0.8-0.4-1.6-0.6-2.4
		c-0.7,0.6-1.7,1.1-2,1.9c-2.8,7.2-5.9,14.4-8.2,21.7c-3.1,9.6-5.3,19.4-8.4,29c-2.8,8.6-2.9,17.4-2.6,26.3c0,1.5,0.8,3,1.4,4.4
		c0.1,0.3,0.9,0.5,1.2,0.4c0.4-0.1,0.9-0.6,0.9-0.9c0.1-3.7-0.1-7.4,0.1-11.1c0.3-4.1,0.4-8.3,1.4-12.2
		C79.4,463.7,82.5,453.2,85.8,442.2 M81.3,492.6c0.8-0.3,2.1-0.5,2.2-0.9c0.5-3,0.7-6.1,1-9.2c0.5-4.6,0.2-9.4,1.5-13.7
		c2.1-7.1,5.4-13.9,7.8-20.9c1.2-3.6,1.8-7.5,2.4-11.3c0.1-0.8-1.1-1.7-1.7-2.6c-0.6,0.7-1.5,1.4-1.8,2.2c-2.3,8-3.9,16.3-6.9,24.1
		C81.9,470.6,80.6,481.2,81.3,492.6 M129.3,343.8c0-0.9,0-1.8,0-2.7c0-1.3-0.1-2.5-0.1-3.8c-0.9,0.9-2.1,1.7-2.6,2.8
		c-4.6,10.3-9,20.6-13.6,31c-3,6.7-6,13.3-9,20.1c-0.3,0.7,0,1.6,0,2.5c0.7-0.4,1.7-0.5,2.2-1.1c0.8-1,1.5-2.1,2.1-3.2
		c3-5.9,6.1-11.8,8.9-17.8c2.6-5.6,4.7-11.4,7.2-17.1C125.8,350.9,127.3,347.6,129.3,343.8 M84.9,395.5c-4.2-0.5-8.4-1.1-12.6-1.5
		c-1.3-0.1-2.7,0.4-4,0.7c0.9,0.9,1.8,1.8,2.8,2.6c0.5,0.4,1.2,0.8,1.9,0.9c4.6,1,9.2,2.1,13.9,2.6c1.2,0.1,2.6-1.4,4-2.2
		c-0.9-0.7-1.7-1.6-2.7-2.2C87.5,396,86.6,395.8,84.9,395.5 M229.5,361.7c0.5-1.5,1.1-2.9,1.6-4.4c0.2-0.6,0.3-1.2,0.4-1.9
		c-0.7,0.3-1.6,0.5-2.2,1c-4.1,3.5-8.3,7.1-12.3,10.8c-0.8,0.8-1.5,1.8-2.2,2.7c1.4-0.1,3,0.2,4-0.4
		C222.4,367.2,225.7,364.6,229.5,361.7 M143.5,254.6c3.4-0.3,6.8-0.5,10.2-0.7c0.7,0,1.4,0.1,2.1,0.2c-0.6-0.7-1.2-2-1.8-2.1
		c-1.7-0.1-3.4,0.6-5.1,0.7c-6.3,0.4-12.7,0.7-19,1c-0.5,0-1,0.6-1.5,1c0.6,0.3,1.2,0.8,1.8,0.8
		C134.3,255.2,138.4,254.9,143.5,254.6 M63.9,388.2c1.4,0.7,2.7,1.9,4.1,2.1c1.1,0.2,2.3-0.9,3.5-1.4c-0.7-0.5-1.3-1.2-2.1-1.6
		c-1.5-0.7-3.1-1.3-4.6-2c-1.6-0.7-3.2-1.6-4.7-2.4C61.1,384.6,62.3,386.2,63.9,388.2 M179.7,379.5c-0.5,0.7-1,1.5-1.4,2.3
		c-0.1,0.1,0.7,1,0.9,0.9c3.1-1.2,6.2-2.4,9.3-3.8c0.9-0.4,1.4-1.4,2.1-2.2c-1.2-0.1-2.4-0.6-3.4-0.3
		C184.7,377.1,182.4,378.1,179.7,379.5 M79.4,500.8c0.2,1.4,0.4,2.9,0.7,4.3c0,0.2,0.8,0.2,1.2,0.3c-0.1-1.3-0.3-2.6-0.5-3.9
		C80.8,501.2,80.5,501,79.4,500.8 M162.3,382.3c-0.7-0.5-1.4-1.3-2.1-1.3c-0.8,0.1-1.6,0.9-2.5,1.3c0.9,0.1,1.8,0.3,2.7,0.4
		C160.9,382.8,161.4,382.7,162.3,382.3 M132.1,331.9c0.4,0.5,0.8,0.9,1.1,1.4c0.2-0.6,0.5-1.2,0.7-1.8
		C133.3,331.3,132.7,331.2,132.1,331.9z"/>
	<path d="M305.3,485.9c-8.9-8.7-12.6-19.1-13.1-31.1c-0.6-11.8,2.1-22.9,5.6-33.9c0.3-0.8,0.3-1.7,0.4-2.5c-0.8,0.2-1.9,0.2-2.4,0.7
		c-6.4,6.6-12.4,13.6-19.2,19.8c-5,4.6-10.7,8.5-16.4,12.3c-5.1,3.4-10.4,6.5-15.9,9c-6.1,2.8-12.6,1.1-18.1-1.6
		c-14-6.7-19.3-19.2-18.8-33.9c0.3-8.7,4.5-16.7,9.5-23.9c3.3-4.9,6.7-9.9,10.5-14.4c2.8-3.3,6.3-6.1,9.8-8.6
		c5.4-4,10.8-8.4,16.9-11.2c6.2-2.9,13.3-6,19.9-5.6c9.6,0.5,19.8,1.9,27.8,8.7c2.7,2.3,3.3,8.6,1,12.1c-1.6,2.5-3.5,5.1-4.1,7.9
		c-1.4,6.4-6.3,10.4-9.9,15.1c-8.9,11.6-20.7,19.6-33.2,26.8c-6.1,3.5-13.3,1.2-16.8-5.1c-0.8-1.5-1.7-3.1-2.8-0.7
		c-2.1,4.6-5.7,8.7-5.1,14.4c0.3,3.5,1.7,4.5,5,4.7c8,0.6,14.3-2.5,20.3-7.4c12.6-10.2,25.6-19.8,37.6-30.9
		c12.2-11.3,22.9-23.5,32.3-37c2.3-3.2,4.8-6.3,7.2-9.4c0.6-0.7,1.1-1.5,1.6-2.3c-0.9-0.3-1.9-1-2.8-1c-9.3,0.6-16.3-4.2-22.2-10.4
		c-8.2-8.6-8.5-21.2,0-29.6c6.6-6.5,14.1-12,21.4-17.8c1.2-0.9,3.1-1,4.6-1.4c0.1,1.6,0.6,3.3,0.1,4.6c-1.4,3.4-2.8,7-5.1,9.7
		c-4.9,5.6-7.4,12.1-9.6,19c-1.9,5.8-0.8,7.1,5.1,6.7c5.6-0.3,11.3,0,16.9-0.5c9-0.8,14.8-6.7,20-13.4c4.3-5.6,8.9-11,13.6-16.4
		c8.7-10,17.3-20,26.2-29.8c4.3-4.7,8.8-4,12.9,1.2c2.2,2.8,4.7,5.4,7.1,8.1c6.6,7.1,4.8,14.9-4,18.8c-2.6,1.2-4.8,3.2-7,5.1
		c-0.6,0.5-0.6,1.8-0.8,2.7c0.7-0.2,1.5-0.3,2.2-0.6c6.5-3,13-6.1,19.6-9.1c10.4-4.8,20.9-9.3,31.2-14.2
		c15.9-7.6,31.6-15.6,47.6-23.3c13.1-6.3,26.2-12.6,39.6-18.3c14.6-6.2,29.5-12.1,44.4-17.5c10-3.7,20.3-6.3,31.2-5.4
		c4.3,0.4,8.1,1.5,10.4,5.8c1.3,2.4,0.4,3.1-1.4,3.2c-10.6,0.5-20.6,3.5-30.4,7.4c-14,5.5-28.3,10.5-42,16.7
		c-14.7,6.6-28.8,14.4-43.2,21.7c-10.3,5.2-20.6,10.6-31,15.6c-11.3,5.5-23.1,10.1-34,16.1c-6,3.3-12.7,4.9-18,9.9
		c-3.2,3-8.3,4-12.5,5.9c-9.2,4-18.4,7.9-27.6,11.9c-2.3,1-4.5,2.5-7,3c-9.2,1.8-13.3,9.8-19.1,15.6c-2.3,2.3-4.3,5-6.5,7.3
		c-8.4,9-16.4,18.2-22.1,29.3c-5.2,10-11.7,19.2-16.9,29.2c-4.5,8.4-8.4,17.1-8.8,27.1c-0.2,5.6-3.5,10.7-2.8,16.7
		c0.4,3.4,0.5,5.8,4.9,4c0.6-0.2,2.1,0.3,2.4,0.9c1.4,2.5,0.1,11-1.8,13c-3.1,3.2-7.2,3.6-12.2,1.2
		C306.8,486.8,306.1,486.5,305.3,485.9 M485.4,293.5c7.1-3.5,14.1-7.1,21.3-10.5c9.2-4.4,18.5-8.4,27.6-12.9
		c10.6-5.3,20.8-11.6,31.7-16.3c17.5-7.5,34.9-15.3,53.4-20.2c0.9-0.2,1.7-1.3,2.5-2c-1-0.3-2.1-1.1-3-0.8
		c-8.8,2.3-17.7,4.3-26.2,7.4c-12,4.4-23.8,9.4-35.6,14.6c-11.6,5.1-22.9,10.9-34.4,16.3c-5.4,2.5-10.7,5.2-16.1,7.4
		c-10.2,4.1-20.1,8.4-29.1,14.9c-3.7,2.7-7.6,5-11.7,7.1c-3.8,1.9-7.9,2.9-11.7,4.8c-1.4,0.7-2.2,2.6-3.3,4c1.5-0.1,3.1,0.1,4.4-0.5
		C465,302.5,474.9,298.2,485.4,293.5 M246,423.9c9.4-2.8,17.6-7.8,24.5-14.6c4.1-4,7.7-8.6,11.3-13.1c2.1-2.7,4-5.6,5.7-8.6
		c0.5-0.9,0.2-2.2,0.2-3.4c-1.3,0-2.9-0.4-4,0.1c-4.5,2.3-8.8,5.1-13.4,7.5c-11.6,5.9-19.5,16-28.3,25.1
		C238.2,421.1,239,422.7,246,423.9 M331.1,391c4.3-6.4,8.7-12.9,12.9-19.4c0.5-0.8,0.4-1.9,0.6-2.8c-1.1,0.3-2.6,0.3-3.1,1
		c-1.5,2-2.5,4.5-4,6.5c-6.3,8.8-12.8,17.6-19,26.5c-1.2,1.7-1.4,4-2.4,5.9c-2.7,5.6-5.7,11-8.3,16.7c-1,2.2-1,4.7-1.7,7.1
		c-1.5,5-3.3,9.9-4.7,15c-0.3,1.2,0.3,2.6,0.4,4c0.8-1.1,1.8-2,2.2-3.2c3.7-10.7,7-21.5,11.2-32c2.3-5.8,5.8-11.1,9-16.4
		C326.1,396.8,328.5,394.2,331.1,391 M338.9,364c0.9-1.2,1.9-2.2,2.5-3.5c0.3-0.7-0.3-1.8-0.5-2.7c0-0.1-1-0.1-1.2,0.1
		c-2.4,3.2-4.8,6.5-7,9.8c-0.3,0.5,0.1,1.4,0.1,2.1c0.7-0.3,1.7-0.4,2.2-0.9C336.2,367.5,337.3,365.9,338.9,364 M350.3,360.8
		c-0.7-0.2-1.5-0.4-2.2-0.6c0.1,0.5,0.3,1.5,0.4,1.5C349.3,361.6,350.1,361.4,350.3,360.8z"/>
	<path d="M784.9,376.5c-1.4,2.3-3,4.3-3.8,6.5c-3.6,9.1-9.7,15.8-18,20.8c-4,2.4-8.1,4.6-12.3,6.8c-0.9,0.4-2,0.6-3,0.5
		c-10-1-18.6-11.1-19.1-21.2c-0.4-8.6,1.8-15.9,6.9-22.9c4.3-6,7.4-12.8,11.6-18.9c3.9-5.7,8.3-11,12.9-16.2c2.8-3.2,8-2.1,12.5,1.6
		c9.5,7.7,9.1,13.9,1.3,22.5c-8.3,9.2-13.7,20.1-21,29.9c-0.8,1-0.2,3.1-0.3,4.6c1.2-0.7,2.8-1,3.7-2c4.7-5.3,8.9-11.1,13.8-16.2
		c9.7-10.1,19.9-19.8,29.7-29.9c8.5-8.8,16.1-18.2,22.5-28.6c3.4-5.5,7.3-10.7,11.2-16c2.9-3.9,8.1-3.7,11.9-0.5
		c4.7,3.9,6.6,9.3,7.7,14.7c0.6,3-0.9,6.9-2.6,9.7c-6.4,10.2-13.5,20-19.8,30.3c-3.2,5.3-5.3,11.2-7.4,17c-0.6,1.7-1.5,6.2,3.4,3.6
		c4-2.1,8.2-4.1,11.8-6.8c3.6-2.8,7-6.1,9.6-9.7c1.4-2,1.6-5.3,1.5-8c-0.7-11.8,3.7-21.8,11.5-30.2c8.7-9.3,17.6-18.6,29.1-24.5
		c9.9-5.1,20.4-8.4,31.3-2.2c5.6,3.2,11.2,6.3,16.4,10.1c4,3,2.7,7.7,1.9,11.9c-1.1,6-5.5,9.3-9.9,12.7c-7.9,6-15.3,12.7-25.5,14.6
		c-6.4,1.2-12.8,2.8-18.6-1.8c-2-1.5-3.8-1.3-5.3,0.9c-1,1.5-1.6,3.6-3,4.7c-6.1,4.8-6.5,10.8-5,17.9c0.8,4,2.4,6,5.9,7.6
		c5.2,2.3,10.9,3.4,15.7,0.8c9.8-5.2,19.4-11,28.4-17.4c5.8-4.2,10.8-9.8,15.4-15.4c2.6-3.2,3.9-7.5,5.2-11.5
		c1.4-4.7,4.3-6.4,9.2-4.5c5.5,2.2,12.2,12,11.9,17.8c-0.1,1.4-0.2,3.1-0.9,4.2c-4.4,6.2-8.3,12.9-13.7,18
		c-3.9,3.6-10.1,4.9-15.1,7.3c-2.7,1.3-6,2.2-7.7,4.4c-5.7,7.3-13.7,10.1-22,11.9c-6.7,1.5-13.7,3-20.4,2.5
		c-7.9-0.6-15.6-3.4-21.6-9.2c-2.5-2.4-5-4.9-7.4-7.4c-2-2-3.1-1.9-4.6,0.8c-4.7,8.3-11.2,14.9-20.8,17.3c-7.6,2-14.5,0.2-21.1-4.1
		c-8.4-5.4-10.6-13.1-10.2-22.3c0-0.7-0.2-1.4-0.4-2.1c-0.7,0.4-1.7,0.6-2.2,1.2C792.2,366.7,788.7,371.5,784.9,376.5 M919.6,305.8
		c-2,1.8-3.7,4.3-6,5.4c-8.1,3.8-14.9,9.3-21.6,15c-0.6,0.5-0.7,1.4-1,2.2c0.8,0.3,1.8,1,2.5,0.8c11.2-3.7,22.6-7.3,31.3-15.9
		c1.5-1.4,2.7-4.7,2-6.4C925.8,304.4,923,303.2,919.6,305.8z"/>
	<path d="M404.6,426.4c-5,7.1-9.8,13.9-14.4,20.9c-5.2,8-10.6,16-15.2,24.4c-4.5,8.3-8.8,16.8-12.2,25.6c-3.6,9.2-6.4,18.8-8.8,28.4
		c-1.1,4.2-0.8,8.9-0.4,13.2c0.4,4.1,2.2,4.7,6,3c1.9-0.9,4-1.4,6-2c-0.1,2.2-0.3,4.4-0.1,6.6c0.6,6.4-4.1,9-8.6,9.6
		c-3.8,0.5-8.9-0.9-11.9-3.4c-5.1-4.2-8.7-10-10.6-16.5c-2.1-7.1-1.8-14.3-1.2-21.7c0.6-8.2,2.4-16,5-23.7
		c5.1-15.4,13.3-29.4,21.6-43.2c6.8-11.4,13.8-22.8,21.4-33.7c10.6-15.1,21.8-29.7,32.9-44.4c2.3-3.1,2-4.4-1.4-6
		c-3.1-1.5-6.2-3.1-8.7-5.3c-2.5-2.2-3.4-1.6-4.5,1c-1.6,3.6-3.2,7.2-5,10.7c-5.6,11.1-13.1,20.9-20.4,31
		c-6.3,8.7-12.6,17.1-20.3,24.4c-5.8,5.5-14.6,3.4-16.8-4.2c-0.3-1,1-2.8,2-3.7c10.4-9.4,21.2-18.3,31.4-28
		c11.6-11.1,20.1-24.6,28.8-37.9c1.3-1.9,1.2-4.7,2.4-6.8c0.8-1.4,3.2-3.3,3.9-2.9c2,0.9,4.5,2.7,4.9,4.5c0.6,3.5,2.1,4.7,5.3,4.4
		c4.7-0.4,9.6-0.5,14.2-1.5c8.4-1.9,22.9,8.4,22.7,16.9c-0.1,5.1-4.4,8.1-7.9,11.2c-0.8,0.7-1.8,1.1-2.4,1.8
		c-4.5,5.1-9.2,10.1-13.5,15.3c-6.3,7.7-13.4,14.9-17.4,24.3C409.9,421.6,406.9,423.7,404.6,426.4 M340.7,496.7
		c-0.6,2.3-1.3,4.7-1.8,7c-0.1,0.8,0.5,1.7,0.8,2.6c0.3-0.7,0.7-1.4,1-2c1.1-2.7,2.3-5.4,3.4-8.2c6-16,14.5-30.6,23.3-45.2
		c4.1-6.7,8.4-13.3,12.7-19.8c3.9-5.8,5.1-13.2,11-17.8c0.8-0.7,1.5-1.9,1.7-2.9c0.1-0.8-0.7-1.8-1.1-2.7c-0.5,0.6-1.1,1.1-1.6,1.7
		c-4.3,6.3-8.9,12.4-12.9,18.9c-7.9,12.5-16,25-23.1,37.9C348.9,475.6,345.1,485.9,340.7,496.7 M359,481.1c2.4-4.6,4.9-9.2,7.3-13.9
		c0.4-0.7-0.1-1.8-0.1-2.8c-0.9,0.5-2,0.8-2.5,1.6c-8,12.9-14.5,26.5-18.6,41.1c-0.2,0.8,0.5,1.9,0.7,2.8c0.8-0.6,2-1,2.2-1.7
		c1.1-3.7,1.5-7.6,2.9-11.1C353.1,491.8,356,486.7,359,481.1 M368.7,460.5c0.8-0.7,1.5-1.4,2.3-2.2c-0.2-0.2-0.4-0.4-0.6-0.6
		C369.6,458.5,368.9,459.3,368.7,460.5z"/>
	<path d="M459.7,434.9c-7.1-3-13.8-6.1-16.4-13.6c-3.1-9-1.1-17.8,1.2-26.8c3.4-13.3,12.3-23.2,19.8-33.8c2.5-3.5,7.6-5.7,12-7
		c2.3-0.7,5.6,2.1,8.5,3.2c1.4,0.6,2.7,1.1,4.1,1.6c0.3-1.4,1.1-2.8,1-4.1c-1.3-10.4,5.5-17,12-23c2.7-2.5,7.4-4.4,12.2-2.8
		c2.2,0.7,4.6,0.6,6.9,1c3.8,0.7,5.2,3.4,5.6,6.9c0.8,6.9-1.8,13.1-3.9,19.4c-1.5,4.4-3.4,8.7-4.7,13.1c-0.4,1.5,0.2,3.3,0.4,4.9
		c1.6-0.3,3.3-0.3,4.7-1c5.5-2.8,10.8-5.8,13.8-11.8c1.3-2.5,3.9-3.3,6.5-1.6c2.7,1.8,3.6,6.1,2.1,8.5c-4.9,7.9-10,15.8-18.1,20.7
		c-5.1,3-10.4,7.2-17.1,3.7c-0.3-0.2-2.4,1.7-2.6,2.8c-1.5,9.2-5.1,17.5-10.7,24.8c-2,2.6-5,4.7-7.9,6.1c-7.2,3.5-14.7,6.6-22.2,9.3
		C464.8,436.3,462.3,435.2,459.7,434.9 M486.3,377.7c-9.4,9.4-15.8,20.7-20.1,33.2c-0.5,1.5-1.2,3.2-0.8,4.6
		c0.4,1.2,2.1,2.8,3.2,2.8c2.2-0.1,4.4-1,6.4-1.9c9.4-4.5,16.1-11.9,22.2-20c1.9-2.5,5.1-5.1,5.1-7.8c0-2.6-3.1-5.2-4.9-7.9
		C493.3,374.4,493.3,374.4,486.3,377.7 M514.6,364c2.1-5.4,4.4-10.7,6.3-16.1c0.8-2.2,0.7-4.6,0.9-6.9c0-0.4-0.5-0.8-0.8-1.2
		c-0.3,0.4-0.8,0.7-1,1.1c-3.4,8.2-6.9,16.3-9.9,24.7c-0.7,1.9,0.5,4.5,0.9,6.8c1.1-1.8,2.2-3.5,3.2-5.3
		C514.6,366.4,514.5,365.6,514.6,364z"/>
</g>
</svg>
